<?xml version="1.0" encoding="iso-8859-1"?>
<!-- Uploaded to: SVG Repo, www.svgrepo.com, Generator: SVG Repo Mixer Tools -->
<!DOCTYPE svg PUBLIC "-//W3C//DTD SVG 1.1//EN" "http://www.w3.org/Graphics/SVG/1.1/DTD/svg11.dtd">
<svg fill="#000000" height="800px" width="800px" version="1.1" id="Capa_1" xmlns="http://www.w3.org/2000/svg" xmlns:xlink="http://www.w3.org/1999/xlink" 
	 viewBox="0 0 512 512" xml:space="preserve">
<path d="M496,96H384l-16,16h-22.625H320H208h-41.375H160l-16-16H16c-8.836,0-16,7.164-16,16v288c0,8.836,7.164,16,16,16h121.375
	c2.324,0,6.625,0,6.625,0l16-16h6.625H208h112h25.375H368l16,16h112c8.836,0,16-7.164,16-16V112C512,103.164,504.836,96,496,96z
	 M96,368H80H48H32v-32h16h32h16V368z M96,304H80H48H32v-32h16h32h16V304z M96,240H80H48H32v-32h16h32h16V240z M96,176H80H48H32v-32
	h16h32h16V176z M208,352c0,8.836-7.164,16-16,16s-16-7.164-16-16V160c0-8.836,7.164-16,16-16s16,7.164,16,16V352z M272,352
	c0,8.836-7.164,16-16,16s-16-7.164-16-16V160c0-8.836,7.164-16,16-16s16,7.164,16,16V352z M336,352c0,8.836-7.164,16-16,16
	s-16-7.164-16-16V160c0-8.836,7.164-16,16-16s16,7.164,16,16V352z M448,384c-17.672,0-32-14.328-32-32c0-17.674,14.328-32,32-32
	s32,14.326,32,32C480,369.672,465.672,384,448,384z M448,288c-17.672,0-32-14.328-32-32c0-17.674,14.328-32,32-32s32,14.326,32,32
	C480,273.672,465.672,288,448,288z M448,192c-17.672,0-32-14.328-32-32c0-17.674,14.328-32,32-32s32,14.326,32,32
	C480,177.672,465.672,192,448,192z"/>
</svg>