<?xml version="1.0" encoding="iso-8859-1"?>
<!-- Uploaded to: SVG Repo, www.svgrepo.com, Generator: SVG Repo Mixer Tools -->
<!DOCTYPE svg PUBLIC "-//W3C//DTD SVG 1.1//EN" "http://www.w3.org/Graphics/SVG/1.1/DTD/svg11.dtd">
<svg fill="#000000" height="800px" width="800px" version="1.1" id="Capa_1" xmlns="http://www.w3.org/2000/svg" xmlns:xlink="http://www.w3.org/1999/xlink" 
	 viewBox="0 0 512.003 512.003" xml:space="preserve">
<path d="M497.942,14.062c-18.742-18.75-49.139-18.75-67.881,0l-47.999,47.999c-10.013,10.011-14.504,23.335-13.82,36.444
	l-85.857,85.857c-22.24-17.691-41.358-25.218-61.018-24.312c-32.886,1.305-53.671,25.695-75.674,51.514
	c-8.785,10.304-17.871,20.968-27.909,31.093c-3.168,2.352-14.75,6.984-23.206,10.367c-33.179,13.281-83.314,33.343-93.017,80.631
	c-7.328,35.71,11.129,75.084,56.417,120.372c38.874,38.874,73.381,57.975,104.954,57.975c5.211,0,10.347-0.523,15.402-1.562
	c47.292-9.703,67.346-59.85,80.615-93.029c3.285-8.211,7.75-19.367,10.16-22.921c10.718-10.664,21.199-19.593,31.343-28.234
	c25.812-21.984,50.19-42.749,51.503-75.623c0.785-19.632-6.683-38.759-24.331-61.002l85.875-85.875
	c0.838,0.045,1.666,0.24,2.506,0.24c12.285,0,24.57-4.687,33.941-14.062l47.999-47.999
	C516.688,63.194,516.688,32.804,497.942,14.062z M224.008,319.992c-17.671,0-31.999-14.328-31.999-31.999
	c0-17.673,14.328-31.999,31.999-31.999c17.673,0,31.999,14.326,31.999,31.999C256.007,305.664,241.681,319.992,224.008,319.992z"/>
</svg>