<?xml version="1.0" encoding="iso-8859-1"?>
<!-- Uploaded to: SVG Repo, www.svgrepo.com, Generator: SVG Repo Mixer Tools -->
<!DOCTYPE svg PUBLIC "-//W3C//DTD SVG 1.1//EN" "http://www.w3.org/Graphics/SVG/1.1/DTD/svg11.dtd">
<svg fill="#000000" height="800px" width="800px" version="1.1" id="Capa_1" xmlns="http://www.w3.org/2000/svg" xmlns:xlink="http://www.w3.org/1999/xlink" 
	 viewBox="0 0 512 512" xml:space="preserve">
<path d="M497.941,14.064c-18.742-18.75-49.14-18.75-67.882,0l-48,48c-10.012,10.012-14.504,23.336-13.82,36.445l-96.593,96.593
	L24.24,256.953c-11.184,2.797-20,11.398-23.078,22.508c-3.078,11.109,0.059,23.016,8.211,31.164l191.999,191.999
	c6.086,6.086,14.258,9.375,22.633,9.375c2.848,0,5.719-0.383,8.539-1.164c11.109-3.078,19.707-11.891,22.5-23.078l61.847-247.393
	l96.601-96.603c0.84,0.045,1.668,0.24,2.508,0.24c12.285,0,24.57-4.687,33.941-14.062l48-48
	C516.687,63.196,516.687,32.806,497.941,14.064z M207.868,335.869c-17.672,0-32-14.326-32-32c0-17.674,14.328-32,32-32
	c17.676,0,32,14.326,32,32C239.868,321.543,225.544,335.869,207.868,335.869z"/>
</svg>