<?xml version="1.0" encoding="iso-8859-1"?>
<!-- Uploaded to: SVG Repo, www.svgrepo.com, Generator: SVG Repo Mixer Tools -->
<!DOCTYPE svg PUBLIC "-//W3C//DTD SVG 1.1//EN" "http://www.w3.org/Graphics/SVG/1.1/DTD/svg11.dtd">
<svg fill="#000000" height="800px" width="800px" version="1.1" id="Capa_1" xmlns="http://www.w3.org/2000/svg" xmlns:xlink="http://www.w3.org/1999/xlink" 
	 viewBox="0 0 512 512" xml:space="preserve">
<path d="M497.94,14.063c-18.742-18.75-49.141-18.75-67.883,0l-64,64c-10.012,10.012-14.504,23.336-13.82,36.445L248.144,218.602
	C222.843,201.828,192.562,192,160,192C71.777,192,0,263.773,0,352s71.777,160,160,160s160-71.773,160-160
	c0-32.562-9.828-62.846-26.602-88.144L397.491,159.76c0.84,0.045,1.668,0.24,2.508,0.24c12.285,0,24.57-4.687,33.941-14.062l64-64
	C516.687,63.196,516.687,32.805,497.94,14.063z M256,352c0,52.937-43.066,96-96,96c-14.797,0-28.766-3.463-41.297-9.469
	c12.41-12.496,12.391-32.693-0.074-45.156c-12.469-12.469-32.652-12.488-45.16-0.078C67.461,380.765,64,366.797,64,352
	c0-52.937,43.066-96,96-96c14.793,0,28.758,3.461,41.281,9.463l-26.383,26.385c-12.086-6.395-27.352-4.648-37.527,5.527
	c-12.496,12.492-12.496,32.758,0,45.25l32,32c6.25,6.25,14.437,9.375,22.629,9.375s16.379-3.125,22.629-9.375
	c10.176-10.172,11.918-25.437,5.523-37.523l26.387-26.387C252.539,323.242,256,337.207,256,352z"/>
</svg>