<?xml version="1.0" encoding="iso-8859-1"?>
<!-- Uploaded to: SVG Repo, www.svgrepo.com, Generator: SVG Repo Mixer Tools -->
<!DOCTYPE svg PUBLIC "-//W3C//DTD SVG 1.1//EN" "http://www.w3.org/Graphics/SVG/1.1/DTD/svg11.dtd">
<svg fill="#000000" height="800px" width="800px" version="1.1" id="Capa_1" xmlns="http://www.w3.org/2000/svg" xmlns:xlink="http://www.w3.org/1999/xlink" 
	 viewBox="0 0 512 512" xml:space="preserve">
<g>
	<path d="M447.464,165.383C442.055,99.672,387.109,48,320,48c-48.048,0-89.858,26.508-111.748,65.664
		C203.003,112.582,197.571,112,192,112c-33.766,0-62.502,20.984-74.243,50.57c-19.645-4.561-41.335-3.762-64.509,8.223
		c-28.422,14.699-49.132,42.477-52.644,74.281C-5.789,302.984,39.381,352,96,352h16c0-79.529,64.471-144,144-144s144,64.471,144,144
		h12.612c49.33,0,93.193-35.775,98.75-84.791C516.665,220.449,488.308,179.57,447.464,165.383z"/>
	<path d="M224,352c0-17.674,14.327-32,32-32c5.781,0,11.128,1.652,15.809,4.334l39.723-69.514C295.153,245.441,276.229,240,256,240
		c-61.856,0-112,50.145-112,112c0,20.227,5.44,39.152,14.821,55.531l69.513-39.723C225.653,363.129,224,357.781,224,352z"/>
	<path d="M283.666,336.191C286.348,340.871,288,346.219,288,352c0,17.672-14.326,32-32,32c-5.781,0-11.128-1.652-15.809-4.334
		l-39.723,69.514C216.848,458.559,235.773,464,256,464c61.857,0,112-50.145,112-112c0-20.229-5.44-39.152-14.821-55.531
		L283.666,336.191z"/>
</g>
</svg>