<?xml version="1.0" encoding="iso-8859-1"?>
<!-- Uploaded to: SVG Repo, www.svgrepo.com, Generator: SVG Repo Mixer Tools -->
<!DOCTYPE svg PUBLIC "-//W3C//DTD SVG 1.1//EN" "http://www.w3.org/Graphics/SVG/1.1/DTD/svg11.dtd">
<svg fill="#000000" height="800px" width="800px" version="1.1" id="Capa_1" xmlns="http://www.w3.org/2000/svg" xmlns:xlink="http://www.w3.org/1999/xlink" 
	 viewBox="0 0 512 512" xml:space="preserve">
<g>
	<circle cx="192" cy="256" r="48"/>
	<path d="M480,64H32C14.328,64,0,78.326,0,96v320c0,17.672,14.328,32,32,32h448c17.672,0,32-14.328,32-32V96
		C512,78.326,497.672,64,480,64z M192,400c-79.527,0-144-64.473-144-144c0-79.529,64.473-144,144-144c79.531,0,144,64.471,144,144
		C336,335.527,271.531,400,192,400z M464,288c0,7.566-2.734,14.426-7.125,19.904c0.043,0.029,0.07,0.057,0.113,0.088l-64,80
		C386.668,395.891,377.367,400,367.98,400c-7.012,0-14.07-2.289-19.973-7.016c-13.797-11.039-16.035-31.172-4.996-44.977
		L400,276.773V144c0-17.672,14.328-32,32-32s32,14.328,32,32V288z"/>
</g>
</svg>