<?xml version="1.0" encoding="iso-8859-1"?>
<!-- Uploaded to: SVG Repo, www.svgrepo.com, Generator: SVG Repo Mixer Tools -->
<!DOCTYPE svg PUBLIC "-//W3C//DTD SVG 1.1//EN" "http://www.w3.org/Graphics/SVG/1.1/DTD/svg11.dtd">
<svg fill="#000000" height="800px" width="800px" version="1.1" id="Capa_1" xmlns="http://www.w3.org/2000/svg" xmlns:xlink="http://www.w3.org/1999/xlink" 
	 viewBox="0 0 512.008 512.008" xml:space="preserve">
<g>
	<path d="M511.089,198.488l-21.113-59.814c-2.316-6.563-8.484-10.678-15.086-10.678c-1.699,0-3.43,0.273-5.129,0.85l-106.887,36.186
		c-4.055,1.371-7.391,4.313-9.262,8.16c-0.43,0.889-0.473,1.813-0.73,2.813h-65.758c-0.258-1-0.301-1.924-0.73-2.813
		c-1.871-3.848-5.207-6.788-9.262-8.159l-106.887-36.186c-1.699-0.576-3.43-0.85-5.129-0.85c-6.602,0-12.77,4.113-15.086,10.678
		l-21.113,59.814c-1.426,4.035-1.176,8.473,0.695,12.322c1.871,3.848,5.207,6.787,9.262,8.158l106.887,36.186
		c1.699,0.576,3.43,0.85,5.129,0.85c6.602,0,12.77-4.111,15.086-10.676l1.879-5.324h20.149v20.191c-55,14.23-96,64.184-96,123.805
		c0,19.502,4.488,37.914,12.289,54.457l-18.918,18.918c-12.496,12.492-12.496,32.758,0,45.25c6.25,6.25,14.437,9.375,22.629,9.375
		s16.379-3.125,22.629-9.375l14.762-14.762C266.413,502.992,292.128,512,320.003,512s53.59-9.008,74.609-24.137l14.762,14.762
		c6.25,6.25,14.438,9.375,22.629,9.375s16.379-3.125,22.629-9.375c12.496-12.492,12.496-32.758,0-45.25l-18.918-18.918
		c7.801-16.543,12.289-34.955,12.289-54.457c0-59.621-41-109.574-96-123.805v-20.191h20.148l1.879,5.324
		c2.316,6.563,8.484,10.677,15.086,10.677c1.699,0,3.43-0.274,5.129-0.85l106.887-36.186c4.055-1.371,7.391-4.311,9.262-8.158
		C512.265,206.961,512.515,202.523,511.089,198.488z M384.003,384c0,35.346-28.652,64-64,64s-64-28.654-64-64
		c0-35.348,28.652-64,64-64S384.003,348.652,384.003,384z"/>
	<path d="M126.316,451.375l-14.312-7.156V102.332c2-0.207,3.933-0.406,5.695-0.641c10.281-1.424,17.137-3.098,17.137-3.098
		c11.789-2.9,21.625-13.064,24.406-26.945c3.824-19.107-7.102-38.02-24.406-42.242c0,0-6.855-1.674-17.137-3.098
		c-1.961-0.262-4.148-0.488-6.34-0.715C108.39,10.992,95.48,0,80.003,0S51.616,10.992,48.648,25.594
		c-2.191,0.227-4.379,0.453-6.34,0.715c-10.281,1.424-17.137,3.098-17.137,3.098C13.382,32.305,3.546,42.469,0.769,56.352
		c-3.828,19.105,7.102,38.02,24.402,42.242c0,0,6.856,1.674,17.137,3.098c1.762,0.234,3.696,0.434,5.696,0.641v341.887
		l-14.313,7.156c-15.805,7.906-22.211,27.125-14.309,42.938c5.605,11.211,16.906,17.695,28.644,17.695
		c4.809,0,9.695-1.086,14.289-3.383l17.687-8.844l17.687,8.844c4.598,2.297,9.477,3.383,14.289,3.383
		c11.738,0,23.039-6.484,28.645-17.695C148.527,478.5,142.121,459.281,126.316,451.375z"/>
</g>
</svg>