<?xml version="1.0" encoding="iso-8859-1"?>
<!-- Uploaded to: SVG Repo, www.svgrepo.com, Generator: SVG Repo Mixer Tools -->
<!DOCTYPE svg PUBLIC "-//W3C//DTD SVG 1.1//EN" "http://www.w3.org/Graphics/SVG/1.1/DTD/svg11.dtd">
<svg fill="#000000" height="800px" width="800px" version="1.1" id="Capa_1" xmlns="http://www.w3.org/2000/svg" xmlns:xlink="http://www.w3.org/1999/xlink" 
	 viewBox="0 0 512 512" xml:space="preserve">
<g>
	<path d="M112.492,208.022c5.082,0,10.238-1.219,15.031-3.773l128.941-68.77l128.941,68.77c4.797,2.563,9.949,3.773,15.031,3.773
		c11.438,0,22.504-6.148,28.262-16.945c8.316-15.594,2.418-34.984-13.176-43.297l-91.063-48.566l43.063-22.965
		c15.594-8.313,21.492-27.703,13.176-43.297c-8.313-15.586-27.703-21.469-43.293-13.172l-80.941,43.168L175.523,19.78
		c-15.602-8.336-34.977-2.43-43.293,13.172c-8.316,15.594-2.418,34.984,13.176,43.297l43.063,22.965L97.406,147.78
		c-15.594,8.313-21.492,27.703-13.176,43.297C89.988,201.874,101.051,208.022,112.492,208.022z"/>
	<path d="M480,432.014v-128c17.672,0,32-14.334,32-32.006s-14.328-32.006-32-32.006H32c-17.672,0-32,14.334-32,32.006
		s14.328,32.006,32,32.006v128c-17.672,0-32,14.322-32,31.994s14.328,31.994,32,31.994h448c17.672,0,32-14.322,32-31.994
		S497.672,432.014,480,432.014z M64,368.002c0-8.836,7.164-16,16-16h52.438c5.543-10,15.75-16,27.563-16c11.816,0,22.02,6,27.563,16
		h40.875c5.543-10,15.75-16,27.563-16c11.816,0,22.02,6,27.563,16h40.875c5.543-10,15.75-16,27.563-16c11.816,0,22.02,6,27.563,16
		H432c8.836,0,16,7.164,16,16s-7.164,16-16,16h-52.438c-5.543,10-15.746,16-27.563,16c-11.813,0-22.02-6-27.563-16h-40.875
		c-5.543,10-15.746,16-27.563,16c-11.813,0-22.02-6-27.563-16h-40.875c-5.543,10-15.746,16-27.563,16c-11.813,0-22.02-6-27.563-16
		H80C71.164,384.002,64,376.838,64,368.002z"/>
</g>
</svg>