<?xml version="1.0" encoding="iso-8859-1"?>
<!-- Uploaded to: SVG Repo, www.svgrepo.com, Generator: SVG Repo Mixer Tools -->
<!DOCTYPE svg PUBLIC "-//W3C//DTD SVG 1.1//EN" "http://www.w3.org/Graphics/SVG/1.1/DTD/svg11.dtd">
<svg fill="#000000" height="800px" width="800px" version="1.1" id="Capa_1" xmlns="http://www.w3.org/2000/svg" xmlns:xlink="http://www.w3.org/1999/xlink" 
	 viewBox="0 0 512 512" xml:space="preserve">
<g>
	<path d="M480,448v-63.972c0-8.853-7.176-16.028-16.028-16.028H128c-15.55,0-28.486,11.099-31.374,25.804
		C81.063,364.801,64,320.325,64,264v-16h2.96c0.811,3.792,1.921,7.498,3.093,11.129c3.191,8.528,7.266,16.505,12.342,23.383
		c10.066,13.83,23.023,23.456,35.033,29.105c6.068,2.771,11.838,4.7,17.039,5.99c5.105,1.18,9.881,1.942,14.199,2.214
		c4.561,0.509,6.037,0.11,7.98,0.194c1.658-0.023,2.545-0.036,2.545-0.036c0.125-0.002,0.232-0.065,0.356-0.07
		C159.707,319.914,159.84,320,160,320h36.441c2.794,4.8,6.759,8.765,11.559,11.559V336c0,8.836,7.156,16,16,16s16-7.164,16-16
		v-4.441c14.673-8.544,22.113-28.147,9.775-47.644c-1.419-2.242-3.433-4.257-5.674-5.678c-19.497-12.356-39.114-4.916-47.66,9.763
		h-35.809c-0.205-0.023-0.928-0.107-2.352-0.272c-1.348-0.252-4.781-0.324-6.307-1.001c-1.844-0.415-4.406-1.201-7.598-2.381
		c-3.037-1.229-6.316-2.877-9.674-4.977c-6.619-4.328-13.262-11.009-17.725-19.398c-2.283-4.171-3.768-8.826-4.861-13.513
		c-0.348-2.407-0.846-4.764-0.848-7.209c-0.08-1.205-0.203-2.4-0.066-3.626l0.084-1.815l0.031-0.903l0.012-0.451l0.002-0.025
		c-0.006,0.194-0.01,0.351-0.02,0.754c0.818-8.782,1.695-9.829,3.426-14.846c1.883-4.173,4.023-8.076,6.754-11.363
		c5.383-6.618,12.035-11.032,17.975-13.453c5.795-2.269,17.154-1.8,18.768-1.621c0,0,55.847,3.294,73.766,8.102
		c49.468,13.271,101.313,58.703,138.828,113.086C373.875,317.5,378.844,320,384,320c0.166,0,0.334-0.071,0.5-0.076V320
		c17.397,0,31.5-14.104,31.5-31.5v-257C416,14.103,401.897,0,384.5,0v0.112c-5.353-0.178-10.523,2.239-13.672,6.802
		C333.313,61.297,281.763,107.882,232,120c-18.165,4.423-70.87,8.753-85.689,10.958c-8.636,1.285-20.873,5.013-33.646,12.539
		c-12.689,7.558-25.633,19.453-34.779,35.055c-4.627,7.763-8.045,16.49-10.449,25.532c-0.939,3.458-1.595,7.723-2.073,11.916H64
		c0-8.836-7.156-16-16-16s-16,7.164-16,16c-8.844,0-16,7.164-16,16s7.156,16,16,16v16c0,60.055,18,120.039,50.703,168.898
		c3.075,4.604,8.146,7.094,13.297,7.1V448H80v22.627V480v15.971C80,504.823,87.176,512,96.028,512h383.943
		c8.853,0,16.028-7.177,16.028-16.029V480v-9.373V448H480z M111.338,232.116l0.002-0.038c-0.002,0.024-0.004,0.062-0.004,0.095
		L111.338,232.116z"/>
</g>
</svg>