<?xml version="1.0" encoding="iso-8859-1"?>
<!-- Uploaded to: SVG Repo, www.svgrepo.com, Generator: SVG Repo Mixer Tools -->
<!DOCTYPE svg PUBLIC "-//W3C//DTD SVG 1.1//EN" "http://www.w3.org/Graphics/SVG/1.1/DTD/svg11.dtd">
<svg fill="#000000" height="800px" width="800px" version="1.1" id="Capa_1" xmlns="http://www.w3.org/2000/svg" xmlns:xlink="http://www.w3.org/1999/xlink" 
	 viewBox="0 0 511.993 511.993" xml:space="preserve">
<g>
	<path d="M473.903,237.399c-14.573-28.244-37.455-49.832-55.802-75.343c-16.104-22.392-22.719-53.8-17.088-80.759
		c0.883-4.227,3.641-14.445,10.297-17.969c1.484-0.789,4.336-1.57,7.883-1.305c11.555,0.75,12.805,10.07,12.805,14.047
		c0,17.086,14.352,30.984,32,30.984s32-13.898,32-30.984c0-41.242-30.492-73.164-72.5-75.891
		c-15.297-0.977-30.125,2.023-42.883,8.758c-23.227,12.281-39.094,36.68-43.422,66.055H174.793
		c-4.375-29.461-20.234-53.797-43.422-66.055C118.629,2.212,103.84-0.788,88.504,0.18C46.489,2.907,15.996,34.829,15.996,76.071
		c0,17.086,14.352,30.984,32,30.984s32-13.898,32-30.984c0-3.977,1.25-13.297,12.828-14.055c3.508-0.211,6.375,0.523,7.875,1.32
		c6.641,3.516,9.398,13.734,10.281,17.961c2.477,11.93,1.313,26.633-0.148,39.429c-5.313,46.538-52.264,76.983-72.742,116.672
		c-8.086,15.672-13.734,31.672-17.242,48.906c-7.336,35.875-5.578,73.297,5.086,108.203c6.818,22.316,17.275,43.446,30.323,62.765
		c14.662,21.71,35.99,54.719,66.365,54.719c3.681,0,10.719,0,10.719,0h245.312c0,0,7.101,0,10.742,0
		c26.798,0,46.891-27.781,60.808-46.836c15.64-21.413,28.099-45.256,35.856-70.649c10.664-34.906,12.422-72.328,5.094-108.203
		C487.637,269.071,481.989,253.071,473.903,237.399z M159.996,438.04c-4.305-3.359-8.633-7.469-13.031-12.344
		c-8.031-8.906-23.031-36.953-25.055-43.828l-3.922-11.969c-0.352-1.813-0.781-3.609-1.227-5.406
		c-0.484-1.953-1.031-3.906-1.195-6.016l-0.242-1.813c-2.859-14.844-3.594-29.75-2.18-44.297
		c1.43-14.672,5.195-29.062,11.211-42.781c4.539-10.352,10.775-19.822,17.238-29.054c3.041-4.344,6.158-8.635,9.209-12.971
		c2.013-2.861,9.193-10.242,9.193-13.654C159.996,213.907,159.996,438.04,159.996,438.04z M239.996,447.993h-32v-320h32V447.993z
		 M303.996,447.993h-32v-320h32V447.993z M397.173,356.754c-4.465,25.672-15.184,50.102-32.153,68.942
		c-4.391,4.875-8.719,8.984-13.023,12.344c0,0,0-224.133,0-224.133c11.732,18.576,26.756,35.418,35.64,55.679
		C399.15,295.842,402.326,327.125,397.173,356.754z"/>
</g>
</svg>