<?xml version="1.0" encoding="iso-8859-1"?>
<!-- Uploaded to: SVG Repo, www.svgrepo.com, Generator: SVG Repo Mixer Tools -->
<!DOCTYPE svg PUBLIC "-//W3C//DTD SVG 1.1//EN" "http://www.w3.org/Graphics/SVG/1.1/DTD/svg11.dtd">
<svg fill="#000000" height="800px" width="800px" version="1.1" id="Capa_1" xmlns="http://www.w3.org/2000/svg" xmlns:xlink="http://www.w3.org/1999/xlink" 
	 viewBox="0 0 512 512" xml:space="preserve">
<path d="M461.77,136.212c2.028-14.416-2.312-29.563-13.405-40.648c-106.082-106.063-278.674-106.063-384.756,0
	c-11.093,11.086-15.412,26.232-13.384,40.648C18.796,178.724,0,231.087,0,287.892v112c0,17.672,14.265,32.092,31.942,32.092H64
	v31.908c0,17.672,14.282,32.092,31.958,32.092h48.013c17.676,0,32.029-14.42,32.029-32.092v-128
	c0-17.674-14.353-31.908-32.029-31.908H95.958C78.282,303.983,64,318.218,64,335.892v-48c0-41.168,13.123-79.258,35.273-110.551
	c11.722-0.41,23.314-4.957,32.258-13.902c68.643-68.609,180.314-68.609,248.957,0c8.944,8.945,20.52,13.492,32.242,13.902
	C434.88,208.634,448,246.724,448,287.892v48c0-17.674-14.282-31.908-31.958-31.908h-48.013c-17.676,0-32.029,14.234-32.029,31.908
	v128c0,17.672,14.353,32.092,32.029,32.092h48.013c17.676,0,31.958-14.42,31.958-32.092v-31.908h32.058
	c17.676,0,31.942-14.42,31.942-32.092v-112C512,231.087,493.2,178.724,461.77,136.212z"/>
</svg>