<?xml version="1.0" encoding="iso-8859-1"?>
<!-- Uploaded to: SVG Repo, www.svgrepo.com, Generator: SVG Repo Mixer Tools -->
<!DOCTYPE svg PUBLIC "-//W3C//DTD SVG 1.1//EN" "http://www.w3.org/Graphics/SVG/1.1/DTD/svg11.dtd">
<svg fill="#000000" height="800px" width="800px" version="1.1" id="Capa_1" xmlns="http://www.w3.org/2000/svg" xmlns:xlink="http://www.w3.org/1999/xlink" 
	 viewBox="0 0 512 512" xml:space="preserve">
<g>
	<path d="M384,0H128c-17.672,0-32,14.326-32,32v448c0,17.672,14.328,32,32,32h256c17.674,0,32-14.328,32-32V32
		C416,14.326,401.674,0,384,0z M256,448c-53.02,0-96-42.98-96-96s42.98-96,96-96s96,42.98,96,96S309.02,448,256,448z M352,208H160
		V64h192V208z"/>
	<circle cx="256" cy="352" r="32"/>
</g>
</svg>