<?xml version="1.0" encoding="iso-8859-1"?>
<!-- Uploaded to: SVG Repo, www.svgrepo.com, Generator: SVG Repo Mixer Tools -->
<!DOCTYPE svg PUBLIC "-//W3C//DTD SVG 1.1//EN" "http://www.w3.org/Graphics/SVG/1.1/DTD/svg11.dtd">
<svg fill="#000000" height="800px" width="800px" version="1.1" id="Capa_1" xmlns="http://www.w3.org/2000/svg" xmlns:xlink="http://www.w3.org/1999/xlink" 
	 viewBox="0 0 512 512" xml:space="preserve">
<path d="M368,240c-52.934,0-96,43.063-96,96v80c0,17.648-14.355,32-32,32s-32-14.352-32-32v-41.027
	c19.051-11.035,32-31.361,32-54.973v-96c0-8.836-7.164-16-16-16h-16v-16v-16V96c0-8.838-7.164-16-16-16l13.805-55.211
	c1.359-5.453-0.234-11.221-4.211-15.195l-4.906-4.906c-3-3.002-7.07-4.688-11.313-4.688h-18.742c-4.242,0-8.313,1.684-11.313,4.684
	l-4.914,4.91c-3.973,3.975-5.57,9.742-4.211,15.195L160,80c-8.836-0.002-16,7.162-16,16v80v16v16h-16c-8.836,0-16,7.164-16,16v96
	c0,23.611,12.949,43.938,32,54.973V416c0,52.938,43.066,96,96,96s96-43.063,96-96v-80c0-17.648,14.355-32,32-32
	c17.672,0,32-14.328,32-32S385.672,240,368,240z"/>
</svg>