<?xml version="1.0" encoding="iso-8859-1"?>
<!-- Uploaded to: SVG Repo, www.svgrepo.com, Generator: SVG Repo Mixer Tools -->
<!DOCTYPE svg PUBLIC "-//W3C//DTD SVG 1.1//EN" "http://www.w3.org/Graphics/SVG/1.1/DTD/svg11.dtd">
<svg fill="#000000" height="800px" width="800px" version="1.1" id="Capa_1" xmlns="http://www.w3.org/2000/svg" xmlns:xlink="http://www.w3.org/1999/xlink" 
	 viewBox="0 0 512 512" xml:space="preserve">
<g>
	<path d="M496,160h-5.333c-6.924,0-13.661,2.245-19.2,6.399l-40.558,30.418c-9.737,7.304-21.355,11.678-33.491,12.611L208,224
		v-3.693V208h-12.307c-9.837-0.001-18.938-4.679-25.123-12.328c-20.526-25.383-53.675-40.117-89.96-34.472
		c-41.716,6.491-75.011,41.259-79.928,83.189C-6.144,302.6,39.159,352,96,352c30.299,0,57.265-14.074,74.842-36.01
		c6.051-7.551,15.136-11.99,24.812-11.99h0.026H208v-12.32V288l189.418,14.57c12.136,0.934,23.754,5.309,33.491,12.611
		l40.558,30.418c5.539,4.154,12.276,6.4,19.2,6.4H496c8.837,0,16-7.164,16-16V176C512,167.163,504.837,160,496,160z"/>
</g>
</svg>