<?xml version="1.0" encoding="iso-8859-1"?>
<!-- Uploaded to: SVG Repo, www.svgrepo.com, Generator: SVG Repo Mixer Tools -->
<!DOCTYPE svg PUBLIC "-//W3C//DTD SVG 1.1//EN" "http://www.w3.org/Graphics/SVG/1.1/DTD/svg11.dtd">
<svg fill="#000000" height="800px" width="800px" version="1.1" id="Capa_1" xmlns="http://www.w3.org/2000/svg" xmlns:xlink="http://www.w3.org/1999/xlink" 
	 viewBox="0 0 512 512" xml:space="preserve">
<g>
	<path d="M192,0c-48.281,0-88.25,34.613-96,80h192C280.25,34.613,240.281,0,192,0z"/>
	<path d="M384,240c-52.934,0-96,43.063-96,96v80c0,17.648-14.355,32-32,32s-32-14.352-32-32v-19.047
		c9.961-4.375,17.078-13.104,17.773-23.531l12.203-183.096c0.867-12.979,6.48-24.904,14.59-35.076
		c9.836-12.338,16.676-27.107,19.434-43.25H96c2.758,16.143,9.598,30.912,19.434,43.25c8.109,10.172,13.723,22.098,14.59,35.076
		l12.203,183.096c0.695,10.428,7.813,19.156,17.773,23.531V416c0,52.938,43.066,96,96,96s96-43.063,96-96v-80
		c0-17.648,14.355-32,32-32c17.672,0,32-14.328,32-32S401.672,240,384,240z M192,272c-17.672,0-32-14.328-32-32
		c0-17.674,14.328-32,32-32s32,14.326,32,32C224,257.672,209.672,272,192,272z"/>
</g>
</svg>