<?xml version="1.0" encoding="iso-8859-1"?>
<!-- Uploaded to: SVG Repo, www.svgrepo.com, Generator: SVG Repo Mixer Tools -->
<!DOCTYPE svg PUBLIC "-//W3C//DTD SVG 1.1//EN" "http://www.w3.org/Graphics/SVG/1.1/DTD/svg11.dtd">
<svg fill="#000000" height="800px" width="800px" version="1.1" id="Capa_1" xmlns="http://www.w3.org/2000/svg" xmlns:xlink="http://www.w3.org/1999/xlink" 
	 viewBox="0 0 512 512" xml:space="preserve">
<path d="M480,200.044h-86.719l-49.508-86.722l73.313-46.342c14.945-9.438,19.406-29.223,9.969-44.16
	c-9.434-14.938-29.203-19.329-44.141-9.899L86.742,200.044H32c-17.672,0-32,14.168-32,31.842v96c0,17.674,14.328,32.158,32,32.158
	h32v111.842c0,17.672,14.328,32,32,32s32-14.328,32-32V360.044h96v84.281c-9.523,5.543-16,15.827-16,27.64
	c0,17.672,14.328,32.079,32,32.079h32c17.672,0,32-14.407,32-32.079c0-11.813-6.477-22.097-16-27.64v-84.281h96v111.842
	c0,17.672,14.328,32,32,32s32-14.328,32-32V360.044h32c17.672,0,32-14.485,32-32.158v-96C512,214.212,497.672,200.044,480,200.044z
	 M316.695,130.505l39.734,69.539H206.59L316.695,130.505z M448,296.044H64v-32h31.969c0.023,0,0.039,0,0.063,0
	c0.02,0,0.039,0,0.055,0H448V296.044z"/>
</svg>