<?xml version="1.0" encoding="iso-8859-1"?>
<!-- Uploaded to: SVG Repo, www.svgrepo.com, Generator: SVG Repo Mixer Tools -->
<!DOCTYPE svg PUBLIC "-//W3C//DTD SVG 1.1//EN" "http://www.w3.org/Graphics/SVG/1.1/DTD/svg11.dtd">
<svg fill="#000000" height="800px" width="800px" version="1.1" id="Capa_1" xmlns="http://www.w3.org/2000/svg" xmlns:xlink="http://www.w3.org/1999/xlink" 
	 viewBox="0 0 512 512" xml:space="preserve">
<g>
	<path d="M112,320c-17.668,0-32,14.334-32,32c0,17.668,14.332,32,32,32c17.666,0,32-14.332,32-32C144,334.334,129.666,320,112,320z"
		/>
	<path d="M480,144h-48h-16V80c0-35.289-28.711-64-64-64H160c-35.289,0-64,28.711-64,64v64H80H32c-17.672,0-32,14.326-32,32v288
		c0,17.672,14.328,32,32,32h448c17.672,0,32-14.328,32-32V176C512,158.326,497.672,144,480,144z M160,80h192v64H160V80z M56,176
		c13.248,0,24,10.746,24,24s-10.752,24-24,24s-24-10.746-24-24S42.752,176,56,176z M112,432c-44.164,0-80-35.828-80-80
		s35.836-80,80-80s80,35.828,80,80S156.164,432,112,432z M288,400h-64v-32h64V400z M288,336h-64v-32h64V336z M288,224h-64v-48h64
		V224z M400,432c-44.164,0-80-35.828-80-80s35.836-80,80-80s80,35.828,80,80S444.164,432,400,432z M456,224
		c-13.248,0-24-10.746-24-24s10.752-24,24-24s24,10.746,24,24S469.248,224,456,224z"/>
	<path d="M400,320c-17.668,0-32,14.334-32,32c0,17.668,14.332,32,32,32c17.666,0,32-14.332,32-32C432,334.334,417.666,320,400,320z"
		/>
</g>
</svg>