<?xml version="1.0" encoding="iso-8859-1"?>
<!-- Uploaded to: SVG Repo, www.svgrepo.com, Generator: SVG Repo Mixer Tools -->
<!DOCTYPE svg PUBLIC "-//W3C//DTD SVG 1.1//EN" "http://www.w3.org/Graphics/SVG/1.1/DTD/svg11.dtd">
<svg fill="#000000" height="800px" width="800px" version="1.1" id="Capa_1" xmlns="http://www.w3.org/2000/svg" xmlns:xlink="http://www.w3.org/1999/xlink" 
	 viewBox="0 0 512 512" xml:space="preserve">
<path d="M405.942,203.977l-64-17.305C331.434,182.469,320,190.207,320,201.528v40.367v158.106c0,15.121-16.902,31.107-32,32
	c-37.441,2.213-48-16.912-48-48c17.672,0,32-14.328,32-32c0-17.672-14.328-32-32-32v-32c17.672,0,32-14.328,32-32s-14.328-32-32-32
	V96c0-52.938-43.066-96-96-96h-16c-17.672,0-32,14.328-32,32s14.328,32,32,32h16c17.645,0,32,14.352,32,32v128h0.41
	c-0.125,4-0.41,7.219-0.41,10.842v164.733c0,47.824,29.668,91.842,75.187,106.514C328.449,530.993,400,473.696,400,400.001V262.627
	c0-4.244,1.688-8.313,4.688-11.314l6.625-6.625c3-3.002,4.687-7.07,4.687-11.316v-14.539
	C416,212.289,412.016,206.407,405.942,203.977z"/>
</svg>