<?xml version="1.0" encoding="iso-8859-1"?>
<!-- Uploaded to: SVG Repo, www.svgrepo.com, Generator: SVG Repo Mixer Tools -->
<!DOCTYPE svg PUBLIC "-//W3C//DTD SVG 1.1//EN" "http://www.w3.org/Graphics/SVG/1.1/DTD/svg11.dtd">
<svg fill="#000000" height="800px" width="800px" version="1.1" id="Capa_1" xmlns="http://www.w3.org/2000/svg" xmlns:xlink="http://www.w3.org/1999/xlink" 
	 viewBox="0 0 512 512" xml:space="preserve">
<path d="M480,0H32C14.328,0,0,14.323,0,31.996v448C0,497.668,14.328,512,32,512h448c17.674,0,32-14.332,32-32.004v-448
	C512,14.323,497.674,0,480,0z M112,463.996c-17.672,0-32-14.328-32-32c0-17.674,14.328-32,32-32c17.674,0,32,14.326,32,32
	C144,449.668,129.674,463.996,112,463.996z M144,191.996v144c0,17.672-14.328,32-32,32s-32-14.328-32-32v-144
	c-17.672,0-32-14.328-32-32s14.328-32,32-32v-48c0-17.672,14.328-32,32-32s32,14.328,32,32v48c17.672,0,32,14.328,32,32
	S161.672,191.996,144,191.996z M256,463.996c-17.672,0-32-14.328-32-32c0-17.674,14.328-32,32-32c17.674,0,32,14.326,32,32
	C288,449.668,273.674,463.996,256,463.996z M288,319.996v16c0,17.672-14.328,32-32,32s-32-14.328-32-32v-16
	c-17.672,0-32-14.328-32-32s14.328-32,32-32v-176c0-17.672,14.328-32,32-32s32,14.328,32,32v176c17.672,0,32,14.328,32,32
	S305.672,319.996,288,319.996z M400,463.996c-17.672,0-32-14.328-32-32c0-17.674,14.328-32,32-32c17.674,0,32,14.326,32,32
	C432,449.668,417.674,463.996,400,463.996z M432,191.996v144c0,17.672-14.328,32-32,32s-32-14.328-32-32v-144
	c-17.672,0-32-14.328-32-32s14.328-32,32-32v-48c0-17.672,14.328-32,32-32s32,14.328,32,32v48c17.672,0,32,14.328,32,32
	S449.672,191.996,432,191.996z"/>
</svg>