<?xml version="1.0" encoding="iso-8859-1"?>
<!-- Uploaded to: SVG Repo, www.svgrepo.com, Generator: SVG Repo Mixer Tools -->
<!DOCTYPE svg PUBLIC "-//W3C//DTD SVG 1.1//EN" "http://www.w3.org/Graphics/SVG/1.1/DTD/svg11.dtd">
<svg fill="#000000" height="800px" width="800px" version="1.1" id="Capa_1" xmlns="http://www.w3.org/2000/svg" xmlns:xlink="http://www.w3.org/1999/xlink" 
	 viewBox="0 0 512 512" xml:space="preserve">
<g>
	<path d="M256,144c-61.758,0-112,50.242-112,112s50.242,112,112,112s112-50.242,112-112S317.758,144,256,144z M256,320
		c-35.344,0-64-28.654-64-64c0-35.347,28.656-64,64-64c35.348,0,64,28.653,64,64C320,291.346,291.348,320,256,320z"/>
	<path d="M480,0H32C14.328,0,0,14.326,0,32v448c0,17.673,14.328,32,32,32h448c17.672,0,32-14.327,32-32V32
		C512,14.326,497.672,0,480,0z M56,32c13.254,0,24,10.745,24,24S69.254,80,56,80S32,69.255,32,56S42.746,32,56,32z M56,480
		c-13.254,0-24-10.745-24-24s10.746-24,24-24s24,10.745,24,24S69.254,480,56,480z M406.629,406.625
		C400.379,412.875,392.191,416,384,416s-16.379-3.125-22.629-9.375l-5.715-5.714C327.297,420.477,292.984,432,256,432
		s-71.297-11.523-99.656-31.089l-5.715,5.714C144.379,412.875,136.191,416,128,416s-16.379-3.125-22.629-9.375
		c-12.496-12.492-12.496-32.758,0-45.25l5.719-5.718C91.523,327.297,80,292.984,80,256s11.523-71.297,31.09-99.657l-5.719-5.718
		c-12.496-12.492-12.496-32.758,0-45.25c12.5-12.5,32.758-12.5,45.258,0l5.715,5.714C184.703,91.523,219.016,80,256,80
		s71.297,11.523,99.656,31.089l5.715-5.714c12.5-12.5,32.758-12.5,45.258,0c12.496,12.492,12.496,32.758,0,45.25l-5.719,5.718
		C420.477,184.703,432,219.016,432,256s-11.523,71.297-31.09,99.657l5.719,5.718C419.125,373.867,419.125,394.133,406.629,406.625z
		 M456,480c-13.254,0-24-10.745-24-24s10.746-24,24-24s24,10.745,24,24S469.254,480,456,480z M456,80c-13.254,0-24-10.745-24-24
		s10.746-24,24-24s24,10.745,24,24S469.254,80,456,80z"/>
</g>
</svg>