<?xml version="1.0" encoding="iso-8859-1"?>
<!-- Uploaded to: SVG Repo, www.svgrepo.com, Generator: SVG Repo Mixer Tools -->
<!DOCTYPE svg PUBLIC "-//W3C//DTD SVG 1.1//EN" "http://www.w3.org/Graphics/SVG/1.1/DTD/svg11.dtd">
<svg fill="#000000" height="800px" width="800px" version="1.1" id="Capa_1" xmlns="http://www.w3.org/2000/svg" xmlns:xlink="http://www.w3.org/1999/xlink" 
	 viewBox="0 0 512 512" xml:space="preserve">
<path d="M512,272c0-26.93-16.676-49.877-40.229-59.324c-4.99-18.121-12.119-35.324-21.246-51.307
	c9.971-23.334,5.533-51.35-13.506-70.389s-47.055-23.477-70.389-13.506c-15.982-9.127-33.186-16.256-51.307-21.246
	C305.877,32.676,282.93,16,256,16s-49.877,16.676-59.324,40.229c-18.121,4.99-35.324,12.119-51.305,21.246
	C122.037,67.504,94.02,71.941,74.98,90.98s-23.477,47.055-13.506,70.389c-9.127,15.982-16.256,33.186-21.248,51.307
	C16.676,222.125,0,245.07,0,272s16.676,49.875,40.227,59.324c4.992,18.121,12.121,35.324,21.248,51.305
	c-9.971,23.334-5.533,51.352,13.506,70.391s47.057,23.477,70.391,13.506C178.047,485.184,215.752,496,256,496
	s77.953-10.816,110.631-29.475c23.334,9.971,51.35,5.533,70.389-13.506s23.477-47.057,13.506-70.391
	c9.127-15.98,16.256-33.184,21.246-51.305C495.324,321.877,512,298.93,512,272z M183.592,414.492
	c1.955-18.551-3.885-37.766-18.102-51.982s-33.432-20.057-51.982-18.102c-3.727-7.307-6.953-14.896-9.537-22.795
	C118.512,309.883,128,292.137,128,272c0-20.139-9.488-37.883-24.029-49.615c2.584-7.896,5.811-15.49,9.537-22.795
	c18.551,1.957,37.766-3.883,51.982-18.1s20.057-33.432,18.102-51.982c7.305-3.727,14.896-6.953,22.795-9.537
	C218.117,134.512,235.863,144,256,144c20.139,0,37.883-9.488,49.615-24.029c7.896,2.584,15.49,5.811,22.795,9.537
	c-1.957,18.551,3.883,37.766,18.1,51.982s33.432,20.057,51.982,18.1c3.727,7.305,6.953,14.898,9.537,22.795
	C393.488,234.117,384,251.861,384,272c0,20.137,9.488,37.883,24.029,49.613c-2.584,7.898-5.811,15.488-9.537,22.795
	c-18.551-1.955-37.766,3.885-51.982,18.102s-20.057,33.432-18.1,51.982C306.637,425.602,282.074,432,256,432
	S205.363,425.602,183.592,414.492z"/>
</svg>