<?xml version="1.0" encoding="iso-8859-1"?>
<!-- Uploaded to: SVG Repo, www.svgrepo.com, Generator: SVG Repo Mixer Tools -->
<!DOCTYPE svg PUBLIC "-//W3C//DTD SVG 1.1//EN" "http://www.w3.org/Graphics/SVG/1.1/DTD/svg11.dtd">
<svg fill="#000000" height="800px" width="800px" version="1.1" id="Capa_1" xmlns="http://www.w3.org/2000/svg" xmlns:xlink="http://www.w3.org/1999/xlink" 
	 viewBox="0 0 512 512" xml:space="preserve">
<path d="M504.581,155.627c-11.312-13.57-31.492-15.406-45.066-4.102l-68.644,57.202l-39.304-58.956
	c10.371-15.328,16.433-33.798,16.433-53.66c0-52.937-43.066-95.999-95.999-95.999s-95.999,43.062-95.999,95.999
	c0,20.91,6.795,40.218,18.187,56.001L4.669,463.467c-9.187,15.101-4.398,34.675,10.699,43.862
	c5.195,3.164,10.937,4.558,16.605,4.558c0.02,0,0.041,0,0.063,0H448c17.672,0,32-14.328,32-32c0-17.672-14.328-32-32-32H88.947
	l157.926-259.338c8.023,2.182,16.422,3.506,25.129,3.506c9.766,0,19.185-1.457,28.07-4.179l41.355,62.044l-73.909,61.596
	c-13.578,11.32-15.414,31.495-4.098,45.073c6.328,7.594,15.43,11.517,24.597,11.517c7.223,0,14.488-2.429,20.469-7.413
	l68.644-57.202l44.246,66.367c6.164,9.25,16.312,14.25,26.656,14.25c6.098,0,12.266-1.734,17.719-5.375
	c14.707-9.805,18.679-29.672,8.875-44.374l-48.048-72.073l73.907-61.589C514.062,189.376,515.897,169.205,504.581,155.627z
	 M272.002,64.112c17.644,0,32,14.351,32,32s-14.355,32-32,32s-32-14.351-32-32S254.357,64.112,272.002,64.112z"/>
</svg>