<?xml version="1.0" encoding="iso-8859-1"?>
<!-- Uploaded to: SVG Repo, www.svgrepo.com, Generator: SVG Repo Mixer Tools -->
<!DOCTYPE svg PUBLIC "-//W3C//DTD SVG 1.1//EN" "http://www.w3.org/Graphics/SVG/1.1/DTD/svg11.dtd">
<svg fill="#000000" height="800px" width="800px" version="1.1" id="Capa_1" xmlns="http://www.w3.org/2000/svg" xmlns:xlink="http://www.w3.org/1999/xlink" 
	 viewBox="0 0 512 512" xml:space="preserve">
<path d="M492.246,114.445c-11.969-4.969-25.715-2.227-34.875,6.938l-55.844,55.844l-131.137,5.246
	c-4.076-12.984-16.063-22.465-30.391-22.465c-15.234,0-27.926,10.668-31.156,24.926l-149.869,5.996
	c-5.674-8.943-15.6-14.922-26.975-14.922c-17.672,0-32,14.328-32,32v32c0,17.672,14.328,32,32,32
	c11.375,0,21.301-5.979,26.975-14.922L96,258.566v13.441c0,52.938,43.066,95.994,96,95.994h16c0,18,14.328,32,32,32s32-14,32-32h16
	c52.934,0,96-43.056,96-95.994v-1.92l17.414,0.697l55.813,56.535c6.133,6.211,14.383,9.516,22.781,9.516
	c4.086,0,8.211-0.781,12.145-2.398C504.16,329.508,512,317.812,512,304.836V144.008C512,131.062,504.203,119.398,492.246,114.445z
	 M192,304.001c-17.645,0-32-14.345-32-31.994v-10.879l48,1.918v40.954H192z M320,272.008c0,17.648-14.355,31.994-32,31.994h-16
	v-38.394l48,1.92V272.008z"/>
</svg>