<?xml version="1.0" encoding="iso-8859-1"?>
<!-- Uploaded to: SVG Repo, www.svgrepo.com, Generator: SVG Repo Mixer Tools -->
<!DOCTYPE svg PUBLIC "-//W3C//DTD SVG 1.1//EN" "http://www.w3.org/Graphics/SVG/1.1/DTD/svg11.dtd">
<svg fill="#000000" height="800px" width="800px" version="1.1" id="Capa_1" xmlns="http://www.w3.org/2000/svg" xmlns:xlink="http://www.w3.org/1999/xlink" 
	 viewBox="0 0 512 512" xml:space="preserve">
<path d="M497.94,14.063c-18.742-18.75-49.14-18.75-67.883,0l-48,48c-10.012,10.012-14.504,23.336-13.82,36.445l-70.933,70.933
	C284.781,163.453,270.809,160,256,160c-21.68,0-41.605,7.264-57.656,19.393C204.328,187.401,208,197.235,208,208
	c0,26.51-21.492,48-48,48c-19.836,0-36.851-12.039-44.168-29.205C49.798,239.897,0.001,298.115,0.001,368
	c0,28.168,8.211,54.363,22.187,76.556L9.372,457.374c-12.496,12.492-12.496,32.758,0,45.25c6.25,6.25,14.437,9.375,22.629,9.375
	s16.379-3.125,22.629-9.375l12.816-12.814c22.191,13.978,48.387,22.189,76.554,22.189c69.883,0,128.101-49.797,141.203-115.832
	C268.039,388.851,256,371.836,256,352c0-26.51,21.492-48,48-48c10.766,0,20.601,3.672,28.609,9.658
	C344.734,297.605,352,277.68,352,256c0-14.809-3.453-28.779-9.441-41.305l70.933-70.935c0.84,0.045,1.668,0.24,2.508,0.24
	c12.285,0,24.57-4.687,33.941-14.062l48-48C516.687,63.196,516.687,32.806,497.94,14.063z"/>
</svg>