<?xml version="1.0" encoding="iso-8859-1"?>
<!-- Uploaded to: SVG Repo, www.svgrepo.com, Generator: SVG Repo Mixer Tools -->
<!DOCTYPE svg PUBLIC "-//W3C//DTD SVG 1.1//EN" "http://www.w3.org/Graphics/SVG/1.1/DTD/svg11.dtd">
<svg fill="#000000" height="800px" width="800px" version="1.1" id="Capa_1" xmlns="http://www.w3.org/2000/svg" xmlns:xlink="http://www.w3.org/1999/xlink" 
	 viewBox="0 0 512 512" xml:space="preserve">
<g>
	<path d="M272,0h-48L80,160H32c-17.672,0-32,14.326-32,32v128c0,17.672,14.328,32,32,32h48l144,160h48c8.836,0,16-7.164,16-16V16
		C288,7.164,280.836,0,272,0z"/>
	<path d="M480,224H352c-17.672,0-32,14.328-32,32s14.328,32,32,32h128c17.672,0,32-14.328,32-32S497.672,224,480,224z"/>
</g>
</svg>