<?xml version="1.0" encoding="iso-8859-1"?>
<!-- Uploaded to: SVG Repo, www.svgrepo.com, Generator: SVG Repo Mixer Tools -->
<!DOCTYPE svg PUBLIC "-//W3C//DTD SVG 1.1//EN" "http://www.w3.org/Graphics/SVG/1.1/DTD/svg11.dtd">
<svg fill="#000000" height="800px" width="800px" version="1.1" id="Capa_1" xmlns="http://www.w3.org/2000/svg" xmlns:xlink="http://www.w3.org/1999/xlink" 
	 viewBox="0 0 512 512" xml:space="preserve">
<g>
	<path d="M461.253,256l25.375-25.375c12.496-12.492,12.496-32.758,0-45.25c-12.5-12.5-32.758-12.5-45.258,0l-25.371,25.371
		l-25.371-25.371c-12.5-12.5-32.758-12.5-45.258,0c-12.496,12.492-12.496,32.758,0,45.25L370.745,256l-25.375,25.375
		c-12.496,12.492-12.496,32.758,0,45.25c6.25,6.25,14.438,9.375,22.629,9.375s16.379-3.125,22.629-9.375l25.371-25.371
		l25.371,25.371c6.25,6.25,14.438,9.375,22.629,9.375s16.379-3.125,22.629-9.375c12.496-12.492,12.496-32.758,0-45.25L461.253,256z"
		/>
	<path d="M287.999,0h-48l-144,160h-48C30.327,160,16,174.326,16,192v128c0,17.672,14.327,32,31.999,32h48l144,160h48
		c8.836,0,16.001-7.164,16.001-16V16C304,7.164,296.835,0,287.999,0z"/>
</g>
</svg>