<?xml version="1.0" encoding="iso-8859-1"?>
<!-- Uploaded to: SVG Repo, www.svgrepo.com, Generator: SVG Repo Mixer Tools -->
<!DOCTYPE svg PUBLIC "-//W3C//DTD SVG 1.1//EN" "http://www.w3.org/Graphics/SVG/1.1/DTD/svg11.dtd">
<svg fill="#000000" height="800px" width="800px" version="1.1" id="Capa_1" xmlns="http://www.w3.org/2000/svg" xmlns:xlink="http://www.w3.org/1999/xlink" 
	 viewBox="0 0 512 512" xml:space="preserve">
<path d="M496,112h-16V80V32c0-17.674-14.328-32-32-32h-64c-17.672,0-32,14.326-32,32v48v32h-32V80V32c0-17.674-14.328-32-32-32h-64
	c-17.672,0-32,14.326-32,32v48v32h-32V80V32c0-17.674-14.328-32-32-32H64C46.328,0,32,14.326,32,32v48v32H16
	c-8.836,0-16,7.164-16,16v64c0,8.836,7.164,16,16,16h16v32v240c0,17.672,14.328,32,32,32h64c17.672,0,32-14.328,32-32V240v-32h32v32
	v176c0,17.672,14.328,32,32,32h64c17.672,0,32-14.328,32-32V240v-32h32v32v112c0,17.672,14.328,32,32,32h64
	c17.672,0,32-14.328,32-32V240v-32h16c8.836,0,16-7.164,16-16v-64C512,119.164,504.836,112,496,112z M96,192
	c-17.672,0-32-14.328-32-32c0-17.674,14.328-32,32-32s32,14.326,32,32C128,177.672,113.672,192,96,192z M256,192
	c-17.672,0-32-14.328-32-32c0-17.674,14.328-32,32-32s32,14.326,32,32C288,177.672,273.672,192,256,192z M416,192
	c-17.672,0-32-14.328-32-32c0-17.674,14.328-32,32-32s32,14.326,32,32C448,177.672,433.672,192,416,192z"/>
</svg>